<svg xmlns="http://www.w3.org/2000/svg" viewBox="0 0 303.9 221.59"><defs><style>.cls-1{fill:#fff;}</style></defs><title>groups</title><g id="Слой_2" data-name="Слой 2"><g id="Слой_1-2" data-name="Слой 1"><path class="cls-1" d="M232.9,221.59H69.34a115.64,115.64,0,0,1,6-37.42C81,167.08,90,152.08,103.5,140c29.2-26.08,68.73-25.69,97.05,1.35,22.3,21.29,31.79,48.22,32.75,78.55A7,7,0,0,1,232.9,221.59ZM220.14,209.1c-3.43-24.25-12.29-45.13-30.75-61-22.84-19.66-52.57-19.74-75.72-.41-12.89,10.77-21.33,24.57-26.4,40.41-2.15,6.7-3.42,13.68-5.21,21Z"/><path class="cls-1" d="M151.35,0A50.49,50.49,0,1,1,100.7,50.43,50.57,50.57,0,0,1,151.35,0ZM151,88.49a38.06,38.06,0,1,0-37.79-38.42A38.13,38.13,0,0,0,151,88.49Z"/><path class="cls-1" d="M290.37,197c-2.16-7.84-3.62-14.81-6-21.45-5.1-14.11-13.32-26.09-26.06-34.44-10.14-6.65-21.18-9.38-33.32-6.92a6,6,0,0,1-4.54-1.48,107.31,107.31,0,0,1-7.2-8.11c14.88-5.39,29.17-5.16,43,1.31,23.27,10.88,36,30.44,42.66,54.34,2.5,9.06,3.3,18.59,5,28.51H251.6c-.45-3.53-.93-7.24-1.51-11.76Z"/><path class="cls-1" d="M13,196.87H52.46c-.47,4.27-.86,7.85-1.3,11.87H0c-1.13-35.52,19.53-76.37,54.84-85.94,11.43-3.1,22.71-2.54,34.46,1.75-2.74,3.18-5.18,6.2-7.86,9a3.9,3.9,0,0,1-3,.67c-20.75-3.75-36.31,5-48.75,20.6C20.14,166.82,15.14,180.77,13,196.87Z"/><path class="cls-1" d="M205,94.64l6.64-11.35c10.9,13,24.47,15.95,36.14,8.14a25.45,25.45,0,0,0,8.6-32.69C249.57,45.55,237,42.25,218.71,49c-.17-2.17-.24-4.29-.51-6.38-.91-7.17-.94-7.16,6-9A37.87,37.87,0,1,1,208,98C207,97,206,95.82,205,94.64Z"/><path class="cls-1" d="M90.73,83.52C92.82,87.1,94.89,90.65,97,94.2,90,105.46,72,111,57.31,106.54A37.94,37.94,0,1,1,80,34.12c3.92,1.22,5.5,2.84,4.31,7-.72,2.49-.62,5.21-.9,7.93-17-6.91-29.76-3.88-36.91,8.54A25.39,25.39,0,0,0,53,90.37C64.8,99.34,77.3,97.1,90.73,83.52Z"/></g></g></svg>