<?xml version="1.0" encoding="utf-8"?>
<!-- Generator: Adobe Illustrator 22.1.0, SVG Export Plug-In . SVG Version: 6.00 Build 0)  -->
<svg version="1.1" id="Слой_1" xmlns="http://www.w3.org/2000/svg" xmlns:xlink="http://www.w3.org/1999/xlink" x="0px" y="0px"
	 viewBox="0 0 800 800" style="enable-background:new 0 0 800 800;" xml:space="preserve">
<style type="text/css">
	.st0{fill:#FFFFFF;}
</style>
<g id="XMLID_1_">
	<g>
		<path class="st0" d="M727.5,617.5V675H725H425v-57.5l32.9-48.7C453,564.4,450,558,450,550c0-15,10-25,25-25h3.2l19.3-117.5
			L475,385v-85v-25v-50h50v50h25v-50h50v50h25v-50h50v50v25v85l-22.5,22.5L671.8,525h3.2c15,0,25,10,25,25c0,7.1-2.4,13-6.4,17.3
			L727.5,617.5z M670,625l-32.5-50H515l-35,50H670z M625,365v-40H525v40l27.5,27.5L530,525h90l-22.5-132.5L625,365z"/>
		<path class="st0" d="M377.5,617.5V675H375H75v-57.5l32.9-48.7C103,564.4,100,558,100,550c0-15,10-25,25-25h2.3l25.4-175H150
			c-15,0-25-10-25-25s10-25,25-25h1.9L120,150h80v-50h50v50h82.5l-33.8,150h1.3c15,0,25,10,25,25s-10,25-25,25h-4.8l27.1,175h2.7
			c15,0,25,10,25,25c0,7.1-2.4,13-6.4,17.3L377.5,617.5z M320,625l-32.5-50h-125L130,625H320z M272.5,525l-25-175H205l-25,175H272.5
			z M247.5,300L270,200h-90l22.5,100H247.5z"/>
	</g>
	<g>
	</g>
</g>
</svg>
