<svg xmlns="http://www.w3.org/2000/svg" viewBox="0 0 143.16 138.82"><defs><style>.cls-1{fill:#676767;}</style></defs><title>edit</title><g id="Слой_2" data-name="Слой 2"><g id="Слой_1-2" data-name="Слой 1"><path class="cls-1" d="M143.16,23.24c-1.54,3.07-2.9,8.66-6.36,12.19Q99.45,73.65,61.23,111c-3,3-8.13,4.41-12.53,5.4-6.63,1.5-13.51,1.85-20.25,2.92-3.81.6-5.5-.82-5-4.54,1.08-8.25,2-16.54,3.64-24.68a19,19,0,0,1,4.88-9Q69.18,43.42,106.78,6.14c6.73-6.67,15-7.71,23.55-4.06C138.53,5.58,141.88,12.61,143.16,23.24Zm-38.73-2.77L42.13,82.72,60,100.58l62.31-62.13Zm6-7L129,32.56c7.27-6.44,8.12-15.07,2-21C124.68,5.42,116.12,6.43,110.44,13.43ZM34.85,88.36c-1.13,7.69-2.19,14.94-3.36,22.91l22.89-3.56Z"/><path class="cls-1" d="M57.69,4.66v7.52c-6.81,0-13.43,0-20,0-19.07.07-30,11-30,30.13q0,29.75,0,59.47c0,18.13,11.17,29.37,29.16,29.4q30.49,0,61,0c17.39,0,28.74-11.41,28.81-28.77,0-7,0-13.92,0-21.22h7.58c-.77,12.41,2.3,25-3.1,36.87-6.09,13.39-16.9,20.4-31.55,20.6-21.49.29-43,.13-64.47.06C15.66,138.64.58,124.28.26,104.89q-.54-33.21,0-66.46c.27-17.2,11.92-30.19,29-33.15a56.79,56.79,0,0,1,9-.59C44.62,4.6,51.07,4.66,57.69,4.66Z"/></g></g></svg>