<svg xmlns="http://www.w3.org/2000/svg" viewBox="0 0 625.88 505.66"><defs><style>.cls-1{fill:#fff;}.cls-2{fill:#c1162e;}.cls-3{fill:#34a636;}.cls-4{fill:#68378d;}.cls-5{fill:#c7a5ce;}.cls-6{fill:#41529f;}</style></defs><title>analytics_1</title><g id="Слой_2" data-name="Слой 2"><g id="Слой_1-2" data-name="Слой 1"><path class="cls-1" d="M626.13,495.17v10.74H.25V484.57H626.13Z" transform="translate(-0.25 -0.25)"/><path class="cls-2" d="M580.09,463.51c0,4.43-1.25,5.72-5.63,5.62-12.15-.27-24.32-.08-36.48-.1-1.79,0-3.58-.15-5.64-.24V.25h47.33c.1,1.91.28,3.68.28,5.44Q580,234.61,580.09,463.51Z" transform="translate(-0.25 -0.25)"/><path class="cls-3" d="M479,76.8V468.72c-1.71.12-3.16.3-4.61.3-12.49,0-25-.17-37.48.11-4.33.1-5.72-1-5.68-5.53.22-23,.1-46,.11-69,0-60-.14-119.93.2-179.9.05-8.87,2.4-17.72,3.66-26.58,2.36-16.52.62-32.82-2.39-49.09a82.39,82.39,0,0,1-1.38-13.84c-.17-14.65,0-29.31-.08-44,0-2.56.09-4.53,3.59-4.51C449.38,76.87,463.86,76.8,479,76.8Z" transform="translate(-0.25 -0.25)"/><path class="cls-1" d="M368.6,75.53c33.3,31.33,45.86,70,39,114.9-4.88,31.82-20.89,57.6-45.64,77.73a122.23,122.23,0,0,1-65,26.89c-32.11,3.52-61.31-4.22-87.93-22.36-1.15-.78-4-.81-4.88,0-6.26,5.95-12.28,12.16-18.22,18.43a6.26,6.26,0,0,0-1.79,4.28c1.74,14.77-6.24,24.79-15.92,34.32-19.68,19.37-39.06,39.05-58.65,58.51C98.82,398.93,88.18,409.7,77,419.9c-11.66,10.67-31.51,9.91-43.2-2-12-12.18-13.51-30.23-3-42.77,9.71-11.56,20.84-21.95,31.53-32.67C83.52,321.27,104.84,300.22,126,279c8.06-8.11,17.3-12.66,29-11.84a9.09,9.09,0,0,0,6-2.39c6-5.54,11.55-11.52,17.48-17.11,2.13-2,1.54-3.34.37-5.54-5.65-10.69-12.06-21.12-16.32-32.36-8.45-22.33-9.26-45.54-3.91-68.76,8.23-35.68,28.18-63,59.7-81.72,21.7-12.87,41.61-17,64.19-17.48C315.39,42.27,344.46,52.82,368.6,75.53ZM289.72,259.82c50.07-3.84,90.22-48,83.22-103.39-5.85-46.34-47.47-81.56-95.09-78.6-51.66,1.78-93.34,49.31-85.7,103.88A91.12,91.12,0,0,0,289.72,259.82Z" transform="translate(-0.25 -0.25)"/><path class="cls-4" d="M373.94,294.91V469.05H349.36c-5.83,0-11.67-.26-17.49,0-4.24.23-5.75-.9-5.73-5.48.19-35.16.1-70.31.09-105.47,0-11.83-.12-23.66.1-35.49,0-1.7,1.31-4.43,2.64-4.9,15-5.32,29.18-12.1,42.14-21.37A28.35,28.35,0,0,1,373.94,294.91Z" transform="translate(-0.25 -0.25)"/><path class="cls-5" d="M260.93,323c3.58.47,4.2,2,4.19,5.21q-.11,55.2,0,110.39v30.08c-2,.16-3.48.37-4.93.37-12.32,0-24.65-.18-37,.11-4.68.11-6.17-1.15-6.15-6.05.2-46.29.14-92.58.15-138.87v-6c9.39.47,18.31.59,27.16,1.46C249.93,320.25,255.35,322.25,260.93,323Z" transform="translate(-0.25 -0.25)"/><path class="cls-6" d="M154.06,394.68v74.1c-1.76.09-3.36.25-5,.25-12.63,0-25.28-.18-37.91.07-4.1.08-5.09-1.34-5-5.16.22-9.48-.14-19,.21-28.43a12.07,12.07,0,0,1,3-7.32c9.31-9.72,19-19.11,28.45-28.67C144.06,393.32,144.44,393.15,154.06,394.68Z" transform="translate(-0.25 -0.25)"/></g></g></svg>