<svg xmlns="http://www.w3.org/2000/svg" viewBox="0 0 558.73 510.58"><defs><style>.cls-1{fill:#fff;}</style></defs><title>home</title><g id="Слой_2" data-name="Слой 2"><g id="Слой_1-2" data-name="Слой 1"><path class="cls-1" d="M85.39,255c-8,6.91-14.43,13.11-21.54,18.44-5.1,3.82-10.74,7.65-16.75,9.42-17,5-34.55-3-42.74-18.51a37.09,37.09,0,0,1,8.49-45.53q49-42.67,98.25-85.06L252.86,11.11C269-2.83,289.36-3,305.6,10.93,327.85,30,350,49.28,372.14,68.47c1.74,1.5,3.53,3,6.3,5.26.14-2.7.31-4.37.31-6,0-15.5,0-31,0-46.5Q378.83.14,400.06,0q18.51-.08,37,0c13.71.06,21,7.31,21,20.94q0,58.25-.08,116.49a10.5,10.5,0,0,0,4.08,8.91c27.82,23.87,55.62,47.75,83.17,71.93,21,18.42,16.81,50.85-8,62.4-14.07,6.53-27.65,4.66-39.85-5.07-5.59-4.47-10.87-9.33-16.3-14-1.2-1-2.45-2-4.79-3.93v6.6q0,93.75,0,187.49c0,27.38-16.37,49.58-42,56.57a68.12,68.12,0,0,1-17.27,2.1c-27.16.21-54.33.11-81.49.09-8.9,0-11.34-2.44-11.35-11.25q0-77.49,0-155c0-10.64-4.09-14.81-14.81-14.83q-30.24,0-60.5,0c-11.09,0-15.06,4.08-15.06,15.12q0,77,0,154c0,9.73-2.26,12-12.11,12-25.5,0-51,0-76.5,0-35.3-.07-59.79-24.54-59.8-59.72q0-93.75,0-187.49ZM340.3,494.45h5.93q35.24,0,70.48,0c26.09,0,43.4-17.47,43.4-43.69q0-104,0-208c0-4.23.49-8.22,4.78-10.12s7.59.08,10.83,2.94c10,8.84,20.11,17.48,30.16,26.24,5.41,4.72,11.52,7.44,18.79,6.11,8.6-1.57,14.53-6.57,17-15,2.6-8.9,0-16.52-6.93-22.5q-43.4-37.68-87-75.15c-4-3.43-5.81-7.1-5.79-12.45.16-40.32,0-80.65.15-121,0-4.34-1.32-5.9-5.72-5.81-11.49.23-23,.06-34.49.07-7,0-7.05,0-7.05,6.83q0,32.49,0,65c0,4.45.05,8.86-4.85,11.06-4.67,2.11-7.94-.55-11.12-3.42-.86-.78-1.79-1.5-2.67-2.26q-40.43-35-80.9-70a27.56,27.56,0,0,0-8.45-5.09c-10.6-3.82-18.72.71-26.67,7.63Q182.92,93.17,105.3,160q-40.24,34.83-80.49,69.65c-6.24,5.39-9.71,11.94-8.41,20.25,2.68,17,21.85,24.08,35.21,12.88,11.62-9.74,23-19.78,34.4-29.74,3.17-2.77,6.37-5,10.77-2.89s4.71,5.91,4.7,10.12q-.06,105.48,0,211c0,25.42,17.67,43.13,43,43.18q33.73.07,67.48,0c1.76,0,3.52-.17,5.76-.29v-7.89q0-71.49,0-143c0-18.29,11.76-29.88,30.12-29.83q31,.07,62,0c19.07,0,30.53,11.49,30.51,30.45q-.06,72,0,144Z"/></g></g></svg>