<svg xmlns="http://www.w3.org/2000/svg" viewBox="0 0 17.95 22.18"><defs><style>.cls-1{fill:#8d60f5;}.cls-2{fill:#2fa19a;}.cls-3{fill:#3d8f87;}.cls-4{fill:#35847d;}.cls-5{fill:#fff;}.cls-6{fill:#499691;}.cls-7{fill:#257d73;}.cls-8{fill:#45938e;}.cls-9{fill:#287e7a;}.cls-10{fill:#ddf7f7;}.cls-11{fill:#43918a;}.cls-12{fill:#4a9a95;}.cls-13{fill:#378c85;}.cls-14{fill:#247c74;}.cls-15{fill:#3d8c87;}.cls-16{fill:#2a7f79;}</style></defs><title>Book_3</title><g id="Слой_2" data-name="Слой 2"><g id="Слой_1-2" data-name="Слой 1"><path class="cls-1" d="M0,13.28c0-2,0-4,0-5.95A2.82,2.82,0,0,1,3,4.4q4.23-.08,8.45,0a2.75,2.75,0,0,1,2.93,2.89q.11,6,0,12a2.8,2.8,0,0,1-3,2.94q-4.12.06-8.25,0a2.86,2.86,0,0,1-3.1-3c-.06-2,0-3.93,0-5.89Zm3.74-7.7V16h9.47c0-.13,0-.23,0-.33q0-3.45,0-6.9a12.14,12.14,0,0,0-.11-1.59,1.46,1.46,0,0,0-1.55-1.45c-.79-.07-1.59-.09-2.39-.1Zm.36,11.7c-.46,0-.86,0-1.26,0a1.63,1.63,0,0,0-1.62,1.29c0,1.17.23,2,1.17,2.22A5.92,5.92,0,0,0,3.74,21c1.85,0,3.7,0,5.55,0,.78,0,1.56,0,2.34-.09A1.44,1.44,0,0,0,13,20.08a6.69,6.69,0,0,0,.27-2.77H8.71c0,.41,0,.77,0,1.14s0,.77,0,1.15c-.07.9-.54,1.23-1.34.81a1.78,1.78,0,0,0-1.92,0c-.8.43-1.3.09-1.32-.81S4.12,18.1,4.12,17.28ZM2.42,5.79a1.17,1.17,0,0,0-1,.92,4.75,4.75,0,0,0-.18,1.18c0,2.76,0,5.53,0,8.29a1.45,1.45,0,0,0,0,.28L2.42,16Zm3,13.3a1.61,1.61,0,0,1,2,0V17.3h-2Z" transform="translate(0 -0.03)"/><path class="cls-2" d="M11.23,9h-.05v0h-.06l0,0-.06,0,0,0h0l0,0h0l-.08-.05a1.36,1.36,0,0,0-.49,0,1.13,1.13,0,0,0-.24.08h0L10,8.78h0l0,0h0l0,0h0v0l0,0,0,0,0,0h0L9.75,9l0,0v0h0l0,0h0a.4.4,0,0,0-.08.33v.05h0v0a.29.29,0,0,0,.05.27h0l0,.08,0,.07h0l0,0v0h0v0h0l0,0a1.67,1.67,0,0,0,.28.18,1,1,0,0,0,1-.15h0l0,0,0,0h0l0,0h0a.1.1,0,0,0,0,0h0l0-.06a1,1,0,0,1,0-.1h0a.18.18,0,0,0,.05-.07,2.54,2.54,0,0,0,0-.39.57.57,0,0,0-.07-.22h0v0l0-.06h0V9l0,0V9l0,0h0Zm3.39,1.15v0h0l0,0,0,0v0h0v0h0l0,0h0l0-.06,0-.06v0a1.66,1.66,0,0,0,.06-.21.63.63,0,0,0-.06-.38h0v0a.84.84,0,0,0-.45-.44,1,1,0,0,0-1.07.18l0,0h0l0,0,0,0h0l0,0v0l0,0,0,.05v0s0,0,0,0a.75.75,0,0,0-.05.42,2,2,0,0,0,.09.26h0l0,0,0,0h0v0l0,0h0l0,0h0l0,0h0l0,0h0l0,0,0,0h0l.05,0h0l.09,0,.11,0h0s0,0,0,0a1,1,0,0,0,.48,0l.11,0h0l.18-.07,0,0h0l0,0h0l0,0h0l0,0h0l0,0s0,0,0,0Zm.14.83,0,0h-.1l-.32.13-.21.09-.14.05-.32.09h-.11a4.22,4.22,0,0,1-1.06.13h-.58a4.05,4.05,0,0,1-.78-.09l-.45-.1-.11,0h0l-.05,0h0l-.09,0-.28-.1h0l-.05,0,0,0-.1,0H9.73l0,0h0l0,0h0l0,0h0l0,0h0l0,0h0l0,0h0l-.09-.05h0l-.09,0H9.27l0,0h0l0,0H9.12l0,0h0l0,0h0l-.05,0,0,0H9v0h0l0,0h0v0h0l0,0h0l0,0h0l0,0h0l-.11-.1h0l0,0h0l0,0,0,0h0l0-.05-.06,0h0v0L8.29,10A5.69,5.69,0,0,1,6.54,6.67c0-.06,0-.12,0-.17V5.06a.31.31,0,0,1,0-.08c0-.18.06-.37.1-.56A5.73,5.73,0,0,1,9.42.74,5.24,5.24,0,0,1,10.9.16H11l.1,0h.06l.05,0h.08a10.82,10.82,0,0,1,1.8,0h.25l.34.08.33.1.05,0a5.38,5.38,0,0,1,1.6.86,5.68,5.68,0,0,1,2.2,3.55L18,5V6.5a.14.14,0,0,0,0,.07c-.06.25-.1.52-.17.77s-.17.5-.26.74h0a2.72,2.72,0,0,1-.11.25h0c-.08.13-.14.27-.22.39l-.53.75-.31.34h0l-.12.12h0l-.07.05,0,0h0v0h0l0,0,0,0h0l0,0h0v0h0l0,0h0l0,0a0,0,0,0,0,0,0h0l0,0,0,0,0,0h0v0l0,0,0,0,0,0,0,0h0l0,0v0h0l0,0-.08.05,0,0-.08.05,0,0-.08,0h0l-.06,0,0,0h0l-.1.07h0l0,0h0l-.07,0h0Zm-.09-8.75c0-.1,0-.2,0-.3l0,0V1.17l-.08,0H13.27l-.07,0,0,.84,0,1.25v.2s0,0,0,.08l0,1,0,.89c0,.25,0,.49,0,.73,0,0,0,0,0,.07v0a.08.08,0,0,0,0,0c0,.31,0,.62,0,.92,0,0,0,0,0,.08a2.11,2.11,0,0,0,0,.25l0,0h1l.05,0c0-.09,0-.18,0-.27,0-.51,0-1,0-1.54,0,0,.05-.09,0-.14V5.41a0,0,0,0,0,0,0c0-.22,0-.43,0-.65h0s0,0,0,0v0a2.72,2.72,0,0,1,0-.28l0-.09,0-1V2.85C14.66,2.62,14.66,2.4,14.67,2.18Zm-3.4-.85a.39.39,0,0,0,0-.15H9.78s0,.07,0,.11a.29.29,0,0,0,0,.09c0,.06,0,.12,0,.16,0,.72.05,1.44.08,2.15l.06,2.17L10,7.62l.07,0H11l.07,0a.29.29,0,0,0,0-.09c0-.17,0-.34,0-.51l0-.06V6.71l0-.71c0-.18,0-.37,0-.55s0-.59,0-.88c0,0,0,0,0,0s0-.33,0-.49,0-.29,0-.44l0-1c0-.14,0-.28,0-.42a.24.24,0,0,0,0-.08V1.87l0-.22C11.27,1.55,11.27,1.44,11.27,1.33Z" transform="translate(0 -0.03)"/><path class="cls-3" d="M15.25,10.66l0,0h0Z" transform="translate(0 -0.03)"/><path class="cls-3" d="M15.18,10.7h0Z" transform="translate(0 -0.03)"/><path class="cls-3" d="M15.16,10.71h0l-.06,0h0Z" transform="translate(0 -0.03)"/><path class="cls-3" d="M15.1,10.74h0l0,0h0Z" transform="translate(0 -0.03)"/><path class="cls-3" d="M15.06,10.76h0Z" transform="translate(0 -0.03)"/><path class="cls-3" d="M15,10.78v0l0,0h-.06l.1-.07Z" transform="translate(0 -0.03)"/><path class="cls-4" d="M14.8,9.21a.63.63,0,0,1,.06.38,1.66,1.66,0,0,1-.06.21A1.18,1.18,0,0,0,14.8,9.21Z" transform="translate(0 -0.03)"/><path class="cls-5" d="M13.28,10.11h0l0,0h0l0,0h0l0,0h0l0,0v0h0l0,0,0,0,0-.12a.91.91,0,0,1,0-.61v0l0-.05,0,0V9l0,0h0l0,0,0,0h0l0,0a1,1,0,0,1,1.07-.18.84.84,0,0,1,.45.44v0h0a1.18,1.18,0,0,1,0,.59v0l0,.06,0,.06h0l0,0h0v0h0v0l0,0,0,0h0v0h0s0,0,0,0l0,0h0l0,0h0l0,0h0l0,0h0l0,0-.18.07h0a1.22,1.22,0,0,1-.63,0h0l-.11,0-.09,0h0l-.05,0h0l0,0Z" transform="translate(0 -0.03)"/><path class="cls-3" d="M14.69,11l-.06,0-.08.05-.31.12-.05,0-.1,0h0l.21-.09.32-.13Z" transform="translate(0 -0.03)"/><path class="cls-6" d="M14.68,1.88c0,.1,0,.2,0,.3s0,.44,0,.67v.47l0,1,0,.09c0-.25,0-.51,0-.77,0-.44,0-.87,0-1.3,0-.16,0-.32,0-.48Z" transform="translate(0 -0.03)"/><path class="cls-5" d="M14.67,1.17v.68c0,.16,0,.32,0,.48,0,.43,0,.86,0,1.3,0,.26,0,.52,0,.77a2.72,2.72,0,0,0,0,.28v0s0,0,0,0h0v0c0,.22,0,.44,0,.65v.4c0,.51,0,1,0,1.54,0,.09,0,.18,0,.27H13.42a2.11,2.11,0,0,1,0-.25l0-1v0s0,0,0,0c0-.78,0-1.56-.08-2.33,0-.15,0-.3,0-.45v-.2l0-1.25,0-.84Z" transform="translate(0 -0.03)"/><path class="cls-7" d="M14.67,1.17H13.2l.07,0h1.32Z" transform="translate(0 -0.03)"/><path class="cls-8" d="M14.58,4.73h0Z" transform="translate(0 -0.03)"/><path class="cls-8" d="M14.57,4.74c0,.22,0,.43,0,.65a0,0,0,0,1,0,0c0-.21,0-.43,0-.65Z" transform="translate(0 -0.03)"/><path class="cls-8" d="M14.54,5.67s0,.09,0,.14Z" transform="translate(0 -0.03)"/><path class="cls-9" d="M13.42,7.62h1.05l-.05,0h-1Z" transform="translate(0 -0.03)"/><path class="cls-4" d="M14.26,10.31l-.11,0a1,1,0,0,1-.48,0s0,0,0,0A1.22,1.22,0,0,0,14.26,10.31Z" transform="translate(0 -0.03)"/><path class="cls-3" d="M14.09,11.2h0l-.14,0h0Z" transform="translate(0 -0.03)"/><path class="cls-10" d="M14,.29l-.33-.1A.64.64,0,0,1,14,.29Z" transform="translate(0 -0.03)"/><path class="cls-3" d="M14,11.25h0l-.32.09h0Z" transform="translate(0 -0.03)"/><path class="cls-3" d="M13.63,11.34h0l-.57.12H11.58L11,11.4l-.21,0h-.06l-.11,0h0l.45.1a4.05,4.05,0,0,0,.78.09h.58a4.22,4.22,0,0,0,1.06-.13Z" transform="translate(0 -0.03)"/><path class="cls-8" d="M13.37,6.32l0,1s0,0,0-.08c0-.3,0-.61,0-.92A.08.08,0,0,1,13.37,6.32Z" transform="translate(0 -0.03)"/><path class="cls-8" d="M13.37,6.24s0,0,0,0,0,0,0-.07c0-.24,0-.48,0-.73l0-.89,0-1s0,0,0-.08c0,.15,0,.3,0,.45C13.32,4.68,13.34,5.46,13.37,6.24Z" transform="translate(0 -0.03)"/><path class="cls-4" d="M13.08,9.77l0,.12h0A2,2,0,0,1,13,9.62a.75.75,0,0,1,.05-.42s0,0,0,0A.91.91,0,0,0,13.08,9.77Z" transform="translate(0 -0.03)"/><path class="cls-11" d="M11.42,9.36a2.54,2.54,0,0,1,0,.39.18.18,0,0,1-.05.07,1,1,0,0,0,0-.68h0A.57.57,0,0,1,11.42,9.36Z" transform="translate(0 -0.03)"/><path class="cls-5" d="M11.35,9.14a1,1,0,0,1,0,.68h0a1,1,0,0,0,0,.1l0,.06h0a.1.1,0,0,1,0,0h0l0,0h0l0,0,0,0h0a1,1,0,0,1-1,.15,1.67,1.67,0,0,1-.28-.18l0,0h0v0h0v0l0,0h0l0-.07,0-.08a2.56,2.56,0,0,0-.05-.27V9.44c0-.11.06-.22.08-.33h0l0,0h0v0l0,0L9.8,9h0l0,0,0,0,0,0v0h0l0,0h0l0,0h0l.12-.06h0l.23-.05a1.15,1.15,0,0,1,.58.06l0,0h0l0,0,.06,0,0,0h.06v0h.06l0,0V9l0,0v0h0l0,.06v0Z" transform="translate(0 -0.03)"/><path class="cls-12" d="M11.25,1.18a.39.39,0,0,1,0,.15c0,.11,0,.22,0,.32l0,.22Z" transform="translate(0 -0.03)"/><path class="cls-5" d="M11.25,1.17h0l0,.69v.26s0,0,0,0c0,.31,0,.61,0,.91s0,.52,0,.77,0,.46,0,.69c0,.51,0,1-.05,1.53,0,.22,0,.43,0,.64a.49.49,0,0,0,0,.12,1.15,1.15,0,0,1,0,.19c0,.17,0,.34,0,.51a.29.29,0,0,1,0,.09H10L9.92,5.85,9.86,3.68c0-.71-.06-1.43-.08-2.15,0-.08,0-.17,0-.25s0-.07,0-.11Z" transform="translate(0 -0.03)"/><path class="cls-12" d="M11.24,1.16h0Z" transform="translate(0 -0.03)"/><path class="cls-13" d="M11.23,2.13a.24.24,0,0,1,0,.08c0,.14,0,.28,0,.42l0,1c0,.15,0,.29,0,.44s0,.33,0,.49,0,0,0,0l0,0c0-.23,0-.46,0-.69s0-.51,0-.77,0-.6,0-.91C11.22,2.16,11.23,2.14,11.23,2.13Z" transform="translate(0 -0.03)"/><path class="cls-14" d="M11.24,1.16h0Z" transform="translate(0 -0.03)"/><polygon class="cls-2" points="11.2 8.88 11.2 8.88 11.2 8.88 11.2 8.88"/><path class="cls-15" d="M11.14,4.54l0,0c0,.29,0,.59,0,.88s0,.37,0,.55l0,.71h0c0-.21,0-.42,0-.64C11.11,5.56,11.13,5.05,11.14,4.54Z" transform="translate(0 -0.03)"/><path class="cls-13" d="M11.09,6.71V7s0-.08,0-.13a.49.49,0,0,1,0-.12Z" transform="translate(0 -0.03)"/><path class="cls-15" d="M11.07,6.83s0,.09,0,.13l0,.06A1.15,1.15,0,0,0,11.07,6.83Z" transform="translate(0 -0.03)"/><path class="cls-16" d="M10.92,7.62H11l-.07,0h-.91l-.07,0Z" transform="translate(0 -0.03)"/><path class="cls-11" d="M10.94,8.73h0a1.15,1.15,0,0,0-.58-.06l-.23.05a1.13,1.13,0,0,1,.24-.08,1.36,1.36,0,0,1,.49,0Z" transform="translate(0 -0.03)"/><path class="cls-3" d="M10.65,11.29h-.11Z" transform="translate(0 -0.03)"/><path class="cls-10" d="M10.65,11.3h0l-.05,0Z" transform="translate(0 -0.03)"/><path class="cls-10" d="M10.54,11.27h0Z" transform="translate(0 -0.03)"/><path class="cls-3" d="M10.54,11.26h0Z" transform="translate(0 -0.03)"/><path class="cls-10" d="M10.49,11.25h0Z" transform="translate(0 -0.03)"/><path class="cls-3" d="M10.5,11.25h-.05Z" transform="translate(0 -0.03)"/><path class="cls-3" d="M10.45,11.23h0l0,0h0Z" transform="translate(0 -0.03)"/><path class="cls-10" d="M10.45,11.24h-.09v0h0Z" transform="translate(0 -0.03)"/><path class="cls-3" d="M10.41,11.22h-.1L10,11.08h0l.28.1Z" transform="translate(0 -0.03)"/><path class="cls-12" d="M9.77,1.28c0,.08,0,.17,0,.25s0-.1,0-.16A.29.29,0,0,1,9.77,1.28Z" transform="translate(0 -0.03)"/><path class="cls-11" d="M9.69,9.11c0,.11,0,.22-.08.33A.4.4,0,0,1,9.69,9.11Z" transform="translate(0 -0.03)"/><path class="cls-11" d="M9.61,9.55a2.56,2.56,0,0,1,.05.27h0A.29.29,0,0,1,9.61,9.55Z" transform="translate(0 -0.03)"/><path class="cls-11" d="M9.61,9.49v0h0Z" transform="translate(0 -0.03)"/><polygon class="cls-2" points="9.27 10.67 9.28 10.68 9.27 10.67 9.27 10.67"/><path class="cls-3" d="M8.75,10.35l-.12-.08h0Z" transform="translate(0 -0.03)"/><path class="cls-3" d="M8.64,10.25h0v0h0Z" transform="translate(0 -0.03)"/><path class="cls-10" d="M8.63,10.26h0l0,0h0Z" transform="translate(0 -0.03)"/><path class="cls-3" d="M8.62,10.24h0v0h0Z" transform="translate(0 -0.03)"/><path class="cls-3" d="M8.56,10.2h0Z" transform="translate(0 -0.03)"/><path class="cls-3" d="M8.54,10.18h0v0Z" transform="translate(0 -0.03)"/><path class="cls-10" d="M8.54,10.18h0Z" transform="translate(0 -0.03)"/><path class="cls-10" d="M8.44,10.1h0s0,0,0,0Z" transform="translate(0 -0.03)"/></g></g></svg>