<svg xmlns="http://www.w3.org/2000/svg" viewBox="0 0 207.2 207.64"><defs><style>.cls-1{fill:#a6a6a6;}.cls-2{fill:#f1f1f1;}</style></defs><title>Profile</title><g id="Слой_2" data-name="Слой 2"><g id="Слой_1-2" data-name="Слой 1"><path class="cls-1" d="M37.23,182.53c-5.58-5.6-12-10.6-16.62-16.89-44.67-60.5-13.15-145.7,60.07-163C136.83-10.58,194.88,27,205.17,83.57c7.2,39.61-4.88,72.78-34.79,99.57-.77-2.54-1.56-5.07-2.31-7.62-7-23.87-22.24-40.2-46.15-46.87-24.58-6.86-46.74-1-65.34,16.81C46,155.61,40.64,168.58,37.23,182.53Zm65.94-65.09c18.34,1,37.59-13.36,37.51-36.9-.07-20.69-15.11-36.6-36.78-36.89-19.74-.26-36.87,14-37.24,36.92A36,36,0,0,0,103.17,117.44Z"/><path class="cls-2" d="M37.23,182.53c3.41-13.95,8.76-26.92,19.35-37.07,18.6-17.84,40.76-23.67,65.34-16.81,23.91,6.67,39.14,23,46.15,46.87.75,2.55,1.54,5.08,2.31,7.62A102.66,102.66,0,0,1,114.51,207a96.45,96.45,0,0,1-48.29-6.69C55.66,195.86,45.22,191.18,37.23,182.53Z"/><path class="cls-2" d="M103.17,117.44A36,36,0,0,1,66.66,80.57c.37-23,17.5-37.18,37.24-36.92,21.67.29,36.71,16.2,36.78,36.89C140.76,104.08,121.51,118.47,103.17,117.44Z"/></g></g></svg>