<svg xmlns="http://www.w3.org/2000/svg" viewBox="0 0 116.89 58.88"><defs><style>.cls-1{fill:#fff;}</style></defs><title>view</title><g id="Слой_2" data-name="Слой 2"><g id="Слой_1-2" data-name="Слой 1"><path class="cls-1" d="M58.64,58.88C36.37,58.49,17.31,51.1,2.35,34.13c-2.93-3.32-3.25-5.6-.22-9.2,28-33.3,85-33.23,112.75.15,2.82,3.4,2.58,5.66-.16,8.81C99.86,51,80.82,58.41,58.64,58.88Zm-.27-51.5A22,22,0,1,0,80.48,29.6,22,22,0,0,0,58.37,7.38Z"/><path class="cls-1" d="M58.63,41.39A12,12,0,1,1,70.4,29.11,12,12,0,0,1,58.63,41.39Z"/></g></g></svg>