<svg xmlns="http://www.w3.org/2000/svg" viewBox="0 0 128.83 111.02"><defs><style>.cls-1{fill:#fff;}.cls-2{fill:none;stroke:#1d1d1b;stroke-miterlimit:10;stroke-width:4px;}</style></defs><title>arrow_left</title><g id="Слой_2" data-name="Слой 2"><g id="Слой_1-2" data-name="Слой 1"><path class="cls-1" d="M2.59,54.81a1,1,0,0,0,0,1.8c38.59,16.75,106.89,45.87,122.61,52.32a1.18,1.18,0,0,0,1.45-1.72C117.4,92,108.21,76.77,98.79,61.69c-2-3.15-1.87-5.39,0-8.52,9.31-16,18.42-32,27.17-48.8a1.61,1.61,0,0,0-2.07-2.23Z"/><path class="cls-2" d="M125.19,108.93a1.18,1.18,0,0,0,1.45-1.72C117.4,92,108.21,76.77,98.79,61.69c-2-3.15-1.87-5.39,0-8.52,9.31-16,18.42-32,27.17-48.8a1.61,1.61,0,0,0-2.07-2.23L2.59,54.81a1,1,0,0,0,0,1.8C41.17,73.36,109.47,102.48,125.19,108.93Z"/></g></g></svg>