<svg xmlns="http://www.w3.org/2000/svg" viewBox="0 0 128.83 111.02"><defs><style>.cls-1{fill:#fff;}.cls-2{fill:none;stroke:#1d1d1b;stroke-miterlimit:10;stroke-width:4px;}</style></defs><title>arrow_right</title><g id="Слой_2" data-name="Слой 2"><g id="Слой_1-2" data-name="Слой 1"><path class="cls-1" d="M126.23,54.81a1,1,0,0,1,0,1.8C87.65,73.36,19.35,102.48,3.63,108.93a1.18,1.18,0,0,1-1.45-1.72C11.42,92,20.61,76.77,30,61.69c2-3.15,1.87-5.39,0-8.52-9.31-16-18.42-32-27.17-48.8A1.61,1.61,0,0,1,5,2.14Z"/><path class="cls-2" d="M3.63,108.93a1.18,1.18,0,0,1-1.45-1.72C11.42,92,20.61,76.77,30,61.69c2-3.15,1.87-5.39,0-8.52-9.31-16-18.42-32-27.17-48.8A1.61,1.61,0,0,1,5,2.14L126.23,54.81a1,1,0,0,1,0,1.8C87.65,73.36,19.35,102.48,3.63,108.93Z"/></g></g></svg>